<svg xmlns="http://www.w3.org/2000/svg" width="60" height="20" fill="#f87171" viewBox="0 0 60 20"><path d="M16.479.034c-.235.075-.3.173-.338.494-.014.167-.065.34-.107.39-.043.047-1.2.531-2.607 1.085-3.099 1.224-4.909 1.974-5.771 2.383-.811.386-1.158.475-1.955.517-.37.014-.816.07-1.111.135-.675.153-1.22.205-2.359.242l-.975.028-.192.326c-.187.325-.192.325-.108.46.113.191.103.526-.028.903-.122.345-.14.866-.07 1.68l.033.378-.17.079c-.313.153-.491.512-.627 1.289-.118.638-.122.889-.028 1.27.051.2.06.406.042.722-.028.396-.01.582.098 1.099.014.055.113.158.22.228.333.218.638.535.7.712.07.223.205.367.468.498.586.298.9.349 3.98.628 1.12.102 2.12.2 2.218.214l.173.028v-.507c0-2.16.99-3.85 2.79-4.771 1.626-.829 3.52-.768 5.016.163 1.781 1.108 2.588 2.68 2.49 4.873-.015.372-.043.773-.057.898l-.033.22h14.004c8.18 0 13.999-.02 13.999-.043a7 7 0 0 0-.08-.405c-.066-.288-.084-.572-.08-1.298 0-.875.01-.954.132-1.35.248-.824.567-1.354 1.148-1.936.92-.913 2.073-1.504 3.259-1.667 1.195-.167 2.423.14 3.52.87 1.337.89 2.105 2.24 2.209 3.864.023.405.009.638-.103 1.424l-.033.224.604-.033c.915-.046 1.815-.158 2.166-.265.385-.117.6-.256.765-.508.215-.311.23-.642.065-1.41-.075-.34-.075-.4-.005-.838.038-.26.094-.703.122-.982.029-.284.07-.651.094-.824.103-.698.019-1.396-.239-1.987-.295-.689-1.402-1.229-3.816-1.862a41 41 0 0 0-5.274-1.047c-2.87-.386-5.326-.587-7.169-.587h-1.097l-.942-.549c-3.024-1.768-6.174-3.449-7.942-4.24C32.011.593 30.38.332 27.008.211c-2.165-.074-5.7.023-8.363.238l-.53.041-.206-.135c-.418-.274-1.097-.428-1.43-.32m8.968 1.178c.104.126.357 1.592.685 3.942.117.87.145 1.154.103 1.196-.047.047-.628.042-2.705-.009-6.423-.163-7.81-.223-8.322-.354-.736-.186-1.172-.526-1.481-1.154-.127-.251-.155-.377-.174-.68-.023-.577.047-.744.413-.99.778-.522 2.161-1.08 3.3-1.332 1.67-.372 4.604-.642 7.277-.67.66-.01.862.004.904.05m3.568.172c1.777.182 3.446.452 4.243.694.717.218 1.552.59 2.39 1.065.99.559 2.425 1.564 2.406 1.685-.01.042-.099.08-.225.103a.8.8 0 0 0-.535.335c-.098.126-.112.372-.065.935l.014.14h-8.528l-.811-2.467c-.44-1.359-.806-2.509-.806-2.555-.005-.084.023-.089.501-.056.277.019.915.075 1.416.121"/><path d="M12.273 10.344c-1.838.344-3.31 1.722-3.803 3.551-.136.507-.164 1.434-.065 2.002.3 1.708 1.547 3.146 3.216 3.71 2.419.818 5.096-.41 6.043-2.784a4.83 4.83 0 0 0-.38-4.268c-.637-1.034-1.73-1.83-2.935-2.15-.478-.126-1.57-.159-2.076-.061m1.828 1.373a3.54 3.54 0 0 1 2.32 2.071c.732 1.815-.253 3.928-2.123 4.561-1.936.652-3.985-.451-4.534-2.448-.126-.451-.117-1.261.02-1.736.332-1.159 1.26-2.108 2.376-2.425a3.67 3.67 0 0 1 1.94-.023"/><path d="M13.726 12.21c-.028.158.023 1.401.056 1.434.047.051 1.036-.899 1.013-.973-.052-.154-1.05-.586-1.07-.46M12.16 12.313c-.248.083-.656.307-.703.381-.028.047.984.954 1.069.954.075 0 .098-.428.056-.991-.037-.484-.028-.48-.422-.344M15.03 13.956c-.25.279-.456.53-.456.553 0 .084.211.098.82.061l.61-.037-.014-.163c-.014-.196-.366-.931-.445-.931-.033 0-.263.233-.516.517M10.604 13.681c-.155.247-.357.777-.324.861.019.047.183.06.699.06.928 0 .928 0 .31-.628-.264-.27-.498-.489-.517-.489-.023 0-.098.089-.168.196M13.041 13.979c-.014.037.01.107.052.149.07.07.08.07.15 0 .098-.098.052-.223-.075-.223-.051 0-.108.032-.127.074M12.835 14.784c-.15.154-.174.312-.066.512.155.303.614.265.75-.06.188-.438-.342-.787-.684-.452M12.052 14.924c-.098.06-.047.214.075.228.127.018.188-.103.103-.2-.065-.08-.094-.084-.178-.028M14.092 14.984c-.104.056-.104.163.004.214.117.06.197.019.197-.107 0-.125-.089-.172-.201-.107M10.486 15.613c-.183.014-.225.037-.225.107 0 .246.422 1.06.516 1 .108-.065.89-1.01.89-1.075 0-.051-.088-.065-.477-.056a17 17 0 0 0-.704.024M14.832 15.66a.7.7 0 0 0-.234.064c-.033.033.127.21.464.536.417.395.525.474.577.428.098-.08.276-.442.342-.69.028-.115.06-.246.075-.292.023-.075-.019-.08-.506-.07-.291.005-.615.014-.718.023M13.046 15.976c-.037.097.01.21.09.21.037 0 .093-.034.126-.07.046-.057.046-.084 0-.14-.033-.038-.09-.07-.127-.07-.033 0-.075.032-.089.07M12.043 16.879c-.553.6-.544.581-.37.707.168.116.717.317.88.321h.113l-.033-.656c-.018-.363-.046-.689-.06-.722-.047-.13-.155-.06-.53.35M13.777 16.585c-.028.07-.065.396-.08.726l-.027.596h.107c.277 0 1.032-.27 1.032-.367 0-.047-.835-.992-.924-1.043-.042-.028-.075 0-.108.088M50.266 10.34c-1.979.376-3.479 1.856-3.882 3.839-.108.521-.075 1.545.061 2.062.23.852.666 1.606 1.285 2.215a4.83 4.83 0 0 0 5.616.866 4.765 4.765 0 0 0 2.27-6.055c-.235-.6-.53-1.029-1.051-1.55-.69-.694-1.346-1.075-2.246-1.313-.464-.12-1.566-.158-2.053-.065M52 11.697a3.49 3.49 0 0 1 2.428 2.211q.4 1.117.014 2.276c-.647 1.927-2.87 2.881-4.744 2.043a3.5 3.5 0 0 1-1.679-1.6c-.29-.592-.366-.918-.366-1.56 0-.647.076-.968.38-1.582.39-.787 1.182-1.457 2.054-1.741.553-.177 1.336-.196 1.913-.047"/><path d="M51.682 12.229c-.047.074.028 1.396.08 1.424.042.028 1.021-.898 1.021-.968 0-.075-.445-.321-.745-.41-.347-.107-.319-.107-.356-.046M50.181 12.294c-.248.08-.646.284-.721.368-.047.06.028.144.468.54.29.26.549.465.577.456.075-.024.089-.303.051-.908-.037-.582-.023-.568-.375-.456M53.004 13.946c-.249.28-.455.53-.455.559 0 .084.192.107.717.074.746-.042.75-.042.713-.223-.047-.228-.394-.917-.46-.917-.032 0-.267.228-.515.507M48.61 13.625c-.145.2-.328.633-.342.805l-.009.15h.703c.628 0 .703-.01.718-.08.009-.051-.15-.251-.441-.549-.249-.256-.474-.466-.492-.466-.02 0-.08.061-.136.14M51.016 13.979c-.014.037.009.107.051.149.07.07.08.07.15 0 .099-.098.052-.223-.075-.223-.052 0-.108.032-.127.074M50.81 14.784c-.23.233-.174.563.126.684.136.056.183.056.319 0 .187-.079.262-.195.262-.41-.005-.376-.436-.544-.708-.274M50.027 14.924c-.094.056-.047.214.065.228.117.018.188-.112.108-.205-.061-.074-.09-.08-.174-.023M52 15.05c-.019.05.005.102.056.144.076.05.099.05.155-.005.038-.037.056-.102.042-.14-.037-.097-.215-.097-.253 0M48.451 15.613l-.225.018.024.177c.023.2.225.624.38.82l.107.13.45-.526c.254-.294.455-.559.455-.591 0-.047-.108-.061-.478-.052-.267.005-.586.014-.713.024M52.788 15.669c-.117.013-.216.05-.225.079-.01.027.21.265.487.525l.507.48.103-.135c.117-.14.272-.512.338-.81l.042-.181-.525.009c-.286 0-.614.019-.727.033M51.002 15.976c-.052.06-.052.088.014.149.098.097.23.041.21-.089-.018-.13-.14-.163-.224-.06M50.153 16.73c-.394.414-.651.707-.651.749 0 .102.797.428 1.045.428.09 0 .09-.023.061-.619-.037-.693-.061-.824-.14-.824-.029 0-.17.121-.315.266M51.757 16.553c-.066.116-.146 1.27-.094 1.326.084.093 1.12-.214 1.12-.335 0-.042-.923-1.08-.96-1.08-.01 0-.043.042-.066.089"/></svg>